<svg xmlns="http://www.w3.org/2000/svg" xmlns:svg="http://www.w3.org/2000/svg" id="SVGRoot" width="108" height="108" version="1.1" viewBox="0 0 108 108"><metadata id="metadata12417"/><g style="display:none" id="layer3"><rect id="rect997" width="110" height="95" x="0" y="5" style="fill:#0091ea;fill-opacity:1"/></g><g id="layer2"><g id="g1171" transform="translate(-2.0117302,2.8140476)"><path id="rect944" d="m 41.619141,30.625 a 2.7317688,2.7317688 0 0 0 -1.453125,0.402344 2.7317688,2.7317688 0 0 0 -0.917969,3.736328 2.7317688,2.7317688 0 0 0 3.074219,1.224609 l 4.708984,8.158203 1.183594,-0.683593 -4.708985,-8.15625 a 2.7317688,2.7317688 0 0 0 0.451172,-3.314453 l -0.04883,-0.08008 A 2.7317688,2.7317688 0 0 0 41.619141,30.625 Z" style="fill:#fff;fill-opacity:1;stroke-width:1.36588"/><path id="rect944-9" d="m 70.193359,29.943359 a 2.7317688,2.7317688 0 0 0 -2.40039,1.40625 2.7317688,2.7317688 0 0 0 0.474609,3.273438 l -4.708984,8.15625 1.183594,0.683594 4.708984,-8.15625 a 2.7317688,2.7317688 0 0 0 3.095703,-1.265625 l 0.04492,-0.08203 a 2.7317688,2.7317688 0 0 0 -1.105469,-3.683593 2.7317688,2.7317688 0 0 0 -1.292969,-0.332032 z" style="fill:#fff;fill-opacity:1;stroke-width:1.36588"/><path style="fill:#fff;fill-opacity:1;stroke-width:1.26235" id="path920" d="M 76.499996,53.380028 A 20.488266,17.5 0 0 1 56.186052,70.879394 20.488266,17.5 0 0 1 35.526431,53.67781 20.488266,17.5 0 0 1 55.488815,35.885729 20.488266,17.5 0 0 1 76.488131,52.784549"/><path id="path926" d="M 42.14304,62 C 39.679342,64.598499 43.857376,67.714286 36,72.428571 39.67965,72.0285 39.757952,73.453345 50.429,67.142857 Z" style="fill:#fff;fill-opacity:1;stroke-width:1.36589"/></g><g id="g1142" transform="matrix(0.99999678,0,0,1,-2.6826265,1.255943)"><path id="rect1019" d="m 45.054117,44.744057 c -3.01633,0 -5.444863,2.428533 -5.444863,5.444864 v 0.03734 c 0,3.016336 2.428533,5.444869 5.444863,5.444869 h 23.257382 c 3.016331,0 5.444865,-2.428533 5.444865,-5.444864 v -0.03734 c 0,-3.016336 -2.428533,-5.444869 -5.444865,-5.444869 z m 0.0027,0.682943 h 23.252047 c 2.639289,0 4.76459,2.125298 4.76459,4.764588 v 0.03202 c 0,2.639291 -2.125301,4.764589 -4.76459,4.764589 H 45.056785 c -2.63929,0 -4.764589,-2.125298 -4.764589,-4.764589 v -0.03202 c 0,-2.63929 2.125299,-4.764588 4.764589,-4.764588 z" style="fill:#0091ea;fill-opacity:1;stroke-width:1.22168"/><path style="fill:#0091ea;fill-opacity:1;stroke-width:1.36588" id="path973" d="m 50.400051,50.207596 a 3.414711,3.414711 0 0 1 -3.385657,3.414587 3.414711,3.414711 0 0 1 -3.44327,-3.356482 3.414711,3.414711 0 0 1 3.327064,-3.471704 3.414711,3.414711 0 0 1 3.499886,3.297405"/><path id="path973-3" d="m 69.794991,50.207596 a 3.414711,3.414711 0 0 1 -3.385658,3.414587 3.414711,3.414711 0 0 1 -3.44327,-3.356482 3.414711,3.414711 0 0 1 3.327064,-3.471704 3.414711,3.414711 0 0 1 3.499886,3.297405" style="fill:#0091ea;fill-opacity:1;stroke-width:1.36588"/></g></g></svg>